<?xml version="1.0" encoding="UTF-8"?>
<svg width="21px" height="21px" viewBox="0 0 21 21" version="1.1" xmlns="http://www.w3.org/2000/svg" xmlns:xlink="http://www.w3.org/1999/xlink">
    <!-- Generator: Sketch 51 (57462) - http://www.bohemiancoding.com/sketch -->
    <title>instagram</title>
    <desc>Created with Sketch.</desc>
    <defs></defs>
    <g id="Page-1" stroke="none" stroke-width="1" fill="none" fill-rule="evenodd">
        <g id="Artboard-6" transform="translate(-42.000000, -43.000000)" fill="#9B9B9B">
            <g id="instagram" transform="translate(42.000000, 43.000000)">
                <path d="M18.225,0 L2.025,0 C0.91125,0 0,0.91125 0,2.025 L0,18.225 C0,19.33875 0.91125,20.25 2.025,20.25 L18.225,20.25 C19.33875,20.25 20.25,19.33875 20.25,18.225 L20.25,2.025 C20.25,0.91125 19.33875,0 18.225,0 L18.225,0 Z M10.125,6.075 C12.3525,6.075 14.175,7.8975 14.175,10.125 C14.175,12.3525 12.3525,14.175 10.125,14.175 C7.8975,14.175 6.075,12.3525 6.075,10.125 C6.075,7.8975 7.8975,6.075 10.125,6.075 L10.125,6.075 Z M2.53125,18.225 C2.2275,18.225 2.025,18.0225 2.025,17.71875 L2.025,9.1125 L4.15125,9.1125 C4.05,9.41625 4.05,9.82125 4.05,10.125 C4.05,13.46625 6.78375,16.2 10.125,16.2 C13.46625,16.2 16.2,13.46625 16.2,10.125 C16.2,9.82125 16.2,9.41625 16.09875,9.1125 L18.225,9.1125 L18.225,17.71875 C18.225,18.0225 18.0225,18.225 17.71875,18.225 L2.53125,18.225 L2.53125,18.225 Z M18.225,4.55625 C18.225,4.86 18.0225,5.0625 17.71875,5.0625 L15.69375,5.0625 C15.39,5.0625 15.1875,4.86 15.1875,4.55625 L15.1875,2.53125 C15.1875,2.2275 15.39,2.025 15.69375,2.025 L17.71875,2.025 C18.0225,2.025 18.225,2.2275 18.225,2.53125 L18.225,4.55625 L18.225,4.55625 Z" id="Shape"></path>
            </g>
        </g>
    </g>
</svg>