<?xml version="1.0" encoding="UTF-8"?>
<svg width="21px" height="21px" viewBox="0 0 21 21" version="1.1" xmlns="http://www.w3.org/2000/svg" xmlns:xlink="http://www.w3.org/1999/xlink">
    <!-- Generator: Sketch 51 (57462) - http://www.bohemiancoding.com/sketch -->
    <title>twitter</title>
    <desc>Created with Sketch.</desc>
    <defs></defs>
    <g id="Page-1" stroke="none" stroke-width="1" fill="none" fill-rule="evenodd">
        <g id="Artboard-5" transform="translate(-32.000000, -27.000000)" fill="#9B9B9B">
            <path d="M50.225,27 L34.025,27 C32.91125,27 32,27.91125 32,29.025 L32,45.225 C32,46.33875 32.91125,47.25 34.025,47.25 L50.225,47.25 C51.33875,47.25 52.25,46.33875 52.25,45.225 L52.25,29.025 C52.25,27.91125 51.33875,27 50.225,27 L50.225,27 Z M47.89625,34.39125 C47.795,39.04875 44.85875,42.28875 40.40375,42.49125 C38.58125,42.5925 37.265,41.985 36.05,41.27625 C37.36625,41.47875 39.0875,40.9725 39.99875,40.1625 C38.6825,40.06125 37.8725,39.3525 37.4675,38.23875 C37.8725,38.34 38.2775,38.23875 38.58125,38.23875 C37.36625,37.83375 36.55625,37.125 36.455,35.505 C36.75875,35.7075 37.16375,35.80875 37.56875,35.80875 C36.6575,35.3025 36.05,33.37875 36.75875,32.16375 C38.075,33.58125 39.695,34.79625 42.3275,34.99875 C41.61875,32.16375 45.46625,30.645 46.985,32.56875 C47.69375,32.4675 48.2,32.16375 48.70625,31.96125 C48.50375,32.67 48.09875,33.075 47.5925,33.48 C48.09875,33.37875 48.605,33.2775 49.01,33.075 C48.90875,33.58125 48.4025,33.98625 47.89625,34.39125 L47.89625,34.39125 Z" id="twitter"></path>
        </g>
    </g>
</svg>